HIERARCHY
ROOT Hips
{
	OFFSET 0.000000 0.000000 0.000000 
	CHANNELS 6 Xposition Yposition Zposition Zrotation Yrotation Xrotation
	JOINT LeftUpLeg
	{
		OFFSET 1.363060 -1.794630 0.839290 
		CHANNELS 3 Zrotation Yrotation Xrotation
		JOINT LeftLeg
		{
			OFFSET 2.448110 -6.726130 0.000000 
			CHANNELS 3 Zrotation Yrotation Xrotation
			JOINT LeftFoot
			{
				OFFSET 2.562200 -7.039590 0.000000 
				CHANNELS 3 Zrotation Yrotation Xrotation
				JOINT LeftToeBase
				{
					OFFSET 0.157640 -0.433110 2.322550 
					CHANNELS 3 Zrotation Yrotation Xrotation
					End Site
					{
						OFFSET 0.000000 0.000000 0.000000 
					}
				}
			}
		}
	}
	JOINT RightUpLeg
	{
		OFFSET -1.305520 -1.794630 0.839290 
		CHANNELS 3 Zrotation Yrotation Xrotation
		JOINT RightLeg
		{
			OFFSET -2.542530 -6.985550 0.000000 
			CHANNELS 3 Zrotation Yrotation Xrotation
			JOINT RightFoot
			{
				OFFSET -2.568260 -7.056230 0.000000 
				CHANNELS 3 Zrotation Yrotation Xrotation
				JOINT RightToeBase
				{
					OFFSET -0.164730 -0.452590 2.363150 
					CHANNELS 3 Zrotation Yrotation Xrotation
					End Site
					{
						OFFSET 0.000000 0.000000 0.000000 
					}
				}
			}
		}
	}
	JOINT Spine
	{
		OFFSET 0.028270 2.035590 -0.193380 
		CHANNELS 3 Zrotation Yrotation Xrotation
		JOINT Spine1
		{
			OFFSET 0.056720 2.048850 -0.042750 
			CHANNELS 3 Zrotation Yrotation Xrotation
			JOINT Neck1
			{
				OFFSET -0.054170 1.746240 0.172020 
				CHANNELS 3 Zrotation Yrotation Xrotation
				JOINT Head
				{
					OFFSET 0.104070 1.761360 -0.123970 
					CHANNELS 3 Zrotation Yrotation Xrotation
					End Site
					{
						OFFSET 0.000000 0.000000 0.000000 
					}
				}
			}
			JOINT LeftArm
			{
				OFFSET 3.362410 1.200890 -0.311210 
				CHANNELS 3 Zrotation Yrotation Xrotation
				JOINT LeftForeArm
				{
					OFFSET 4.983000 -0.000000 -0.000000 
					CHANNELS 3 Zrotation Yrotation Xrotation
					JOINT LeftHand
					{
						OFFSET 3.483560 -0.000000 -0.000000 
						CHANNELS 3 Zrotation Yrotation Xrotation
						JOINT LeftHandIndex1
						{
							OFFSET 0.715260 -0.000000 -0.000000 
							CHANNELS 3 Zrotation Yrotation Xrotation
							End Site
							{
								OFFSET 0.000000 0.000000 0.000000 
							}
						}
					}
				}
			}
			JOINT RightArm
			{
				OFFSET -3.136600 1.374050 -0.404650 
				CHANNELS 3 Zrotation Yrotation Xrotation
				JOINT RightForeArm
				{
					OFFSET -5.241900 -0.000000 -0.000000 
					CHANNELS 3 Zrotation Yrotation Xrotation
					JOINT RightHand
					{
						OFFSET -3.444170 -0.000000 -0.000000 
						CHANNELS 3 Zrotation Yrotation Xrotation
						JOINT RightHandIndex1
						{
							OFFSET -0.622530 -0.000000 -0.000000 
							CHANNELS 3 Zrotation Yrotation Xrotation
							End Site
							{
								OFFSET 0.000000 0.000000 0.000000 
							}
						}
					}
				}
			}
		}
	}
}
MOTION
Frames: 9
Frame Time: 0.041667
0.580291 17.958491 -2.855085 0.159161 -2.252329 10.457976 -17.886412 -2.434787 -14.830494 0.057222 6.806724 20.488089 0.678798 -4.703719 -5.645548 0.099100 -2.030100 -5.588900 16.643459 3.373788 -15.531584 -2.047998 -9.194943 25.430365 0.681259 -9.180001 -13.143264 -0.027900 -1.079100 2.966300 5.325357 -0.392479 -0.329433 7.473882 -0.047039 1.362641 0.278563 0.691692 13.570536 -0.987200 0.080100 9.463600 -96.298518 -3.022832 3.183187 11.603682 -20.391740 -1.153792 1.239503 1.147785 1.327557 -7.125000 0.000000 0.000000 83.461484 -0.324161 24.468466 -15.045697 25.832316 -2.860252 -0.131234 0.256142 -10.806266 7.125000 0.000000 0.000000 
0.577715 17.958491 -2.857165 0.178889 -2.256944 10.432220 -17.882926 -2.432916 -14.823258 0.062340 6.818019 20.521418 0.680341 -4.706042 -5.667621 0.094400 -1.981100 -5.453400 16.647197 3.390383 -15.523037 -2.052250 -9.203275 25.457468 0.687185 -9.215503 -13.131935 -0.026700 -1.054000 2.897500 5.133930 -0.392946 -0.309736 7.386615 -0.046437 1.347951 0.279599 0.637493 13.675030 -1.009300 0.064600 9.482900 -96.171835 -3.008640 3.119038 11.552134 -20.299435 -1.138333 1.233201 1.153343 1.384307 -7.125000 0.000000 0.000000 83.521816 -0.394675 24.591893 -15.074127 25.866501 -2.874266 -0.137861 0.249622 -10.991548 7.125000 0.000000 0.000000 
0.574841 17.957995 -2.857958 0.251294 -2.267275 10.422472 -17.943111 -2.424405 -14.811336 0.063252 6.816728 20.522907 0.680352 -4.717892 -5.661985 0.088100 -1.914400 -5.269100 16.582779 3.372109 -15.552907 -2.056725 -9.211928 25.485898 0.683994 -9.186967 -13.105774 -0.025200 -1.023900 2.814600 5.004944 -0.407357 -0.205541 7.377355 -0.052027 1.385524 0.223270 0.631297 13.671226 -1.042700 0.062500 9.480200 -96.124457 -3.075111 3.120957 11.541625 -20.271986 -1.123793 1.231015 1.170763 1.358227 -7.125000 0.000000 0.000000 83.542833 -0.399079 24.669940 -15.109038 25.913458 -2.890075 -0.142969 0.244387 -11.148033 7.125000 0.000000 0.000000 
0.571175 17.957500 -2.857463 0.290990 -2.292688 10.401454 -17.978551 -2.364226 -14.822983 0.067051 6.819409 20.536469 0.683790 -4.774110 -5.630848 0.080500 -1.829700 -5.035200 16.548036 3.338584 -15.565836 -2.060718 -9.220771 25.512625 0.676225 -9.136703 -13.107216 -0.024400 -1.008800 2.772900 5.005120 -0.416998 -0.093230 7.411076 -0.054421 1.404143 0.153172 0.658571 13.609206 -1.064600 0.067500 9.467800 -96.169156 -3.087629 3.110572 11.573727 -20.333316 -1.137647 1.231683 1.164918 1.381973 -7.125000 0.000000 0.000000 83.515905 -0.336911 24.685349 -15.088867 25.884700 -2.881480 -0.143917 0.245751 -11.208740 7.125000 0.000000 0.000000 
0.567411 17.957599 -2.857760 0.245170 -2.322086 10.410737 -17.927591 -2.331225 -14.841160 0.063907 6.810179 20.511217 0.683260 -4.775355 -5.606290 0.081900 -1.846200 -5.080700 16.595978 3.379690 -15.590058 -2.068519 -9.233810 25.558269 0.676854 -9.149039 -13.135387 -0.023200 -0.982600 2.700900 5.137175 -0.421922 -0.036518 7.442523 -0.055956 1.422823 0.063941 0.708805 13.496919 -1.082000 0.077300 9.430400 -96.282960 -3.034954 3.059986 11.603794 -20.402487 -1.168335 1.225078 1.140968 1.444397 -7.125000 0.000000 0.000000 83.437859 -0.258977 24.694976 -15.032053 25.801046 -2.856368 -0.142831 0.251297 -11.201546 7.125000 0.000000 0.000000 
0.563547 17.955519 -2.859841 0.267247 -2.302704 10.425875 -17.946139 -2.298895 -14.868132 0.059789 6.800105 20.481091 0.684861 -4.799323 -5.590448 0.095600 -1.993600 -5.488100 16.584315 3.374882 -15.628643 -2.073938 -9.244335 25.593732 0.678460 -9.167940 -13.159432 -0.021500 -0.946800 2.602400 5.200261 -0.439855 -0.038364 7.487403 -0.064464 1.408227 0.088481 0.735899 13.491947 -1.061800 0.089200 9.421300 -96.352758 -3.002545 3.098709 11.589739 -20.375780 -1.164133 1.223546 1.140671 1.461099 -7.125000 0.000000 0.000000 83.374626 -0.234189 24.678526 -14.981538 25.727225 -2.836532 -0.141822 0.252602 -11.180915 7.125000 0.000000 0.000000 
0.559980 17.952943 -2.862119 0.402257 -2.263590 10.387992 -18.082932 -2.239193 -14.858598 0.060129 6.793669 20.469093 0.694073 -4.909195 -5.587122 0.095300 -1.990600 -5.479800 16.457353 3.311900 -15.625530 -2.075058 -9.253981 25.614865 0.673866 -9.148798 -13.187654 -0.021000 -0.935700 2.571900 5.180660 -0.468748 0.000256 7.574841 -0.076136 1.367940 0.118556 0.762865 13.509545 -1.039400 0.101500 9.422800 -96.393408 -2.995942 3.219970 11.580187 -20.350513 -1.152735 1.227241 1.147886 1.400490 -7.125000 0.000000 0.000000 83.311602 -0.206844 24.656920 -14.925351 25.647628 -2.816386 -0.140676 0.251959 -11.143369 7.125000 0.000000 0.000000 
0.557503 17.955122 -2.862417 0.425353 -2.276713 10.397566 -18.099032 -2.200584 -14.864328 0.057629 6.783405 20.442493 0.699798 -4.972420 -5.577426 0.075200 -1.769600 -4.869300 16.431486 3.344005 -15.653227 -2.079470 -9.261804 25.643025 0.670610 -9.136191 -13.214660 -0.018400 -0.875500 2.406300 5.183023 -0.463438 0.060345 7.594415 -0.072247 1.389411 0.009989 0.780814 13.515179 -1.077700 0.101200 9.425700 -96.433198 -3.040523 3.143449 11.562915 -20.324171 -1.147676 1.229508 1.143839 1.511947 -7.125000 0.000000 0.000000 83.279687 -0.156343 24.611312 -14.866945 25.561040 -2.792512 -0.138407 0.254884 -11.087608 7.125000 0.000000 0.000000 
0.555026 17.957599 -2.861723 0.361386 -2.306311 10.460148 -18.010707 -2.287104 -14.868230 0.051157 6.776385 20.415452 0.693054 -4.879372 -5.601929 0.069200 -1.697700 -4.670900 16.504073 3.384309 -15.716521 -2.083147 -9.260888 25.653616 0.671351 -9.137043 -13.208896 -0.015200 -0.795000 2.184900 5.130381 -0.439120 0.049671 7.519372 -0.061223 1.405085 -0.062185 0.754472 13.645788 -1.119900 0.090200 9.472500 -96.412316 -3.070842 2.926364 11.526125 -20.269447 -1.140598 1.230662 1.135650 1.795831 -7.125000 0.000000 0.000000 83.338705 -0.149669 24.506100 -14.814602 25.480112 -2.769617 -0.137346 0.259540 -10.963227 7.125000 0.000000 0.000000 
